<svg width="47" height="44" viewBox="0 0 47 44" fill="none" xmlns="http://www.w3.org/2000/svg">
<path d="M12.3426 31.1246C11.7185 30.1696 11.2234 29.141 10.866 28.0669L1.08053 30.8419C1.7886 33.1108 2.8432 35.2702 4.21344 37.2366L12.3426 31.1246Z" fill="#56C22B" fill-opacity="0.15"/>
<path d="M15.0771 13.7838C15.9657 13.0693 16.9393 12.479 17.9708 12.0199L14.3143 2.55994C12.1092 3.48065 10.0406 4.73997 8.1961 6.30403L15.0771 13.7838Z" fill="#DDA63A"/>
<path d="M24.1168 0.751219L24.1232 10.8913C25.2267 10.9535 26.33 11.1573 27.4126 11.5067L31.072 2.04529C28.7906 1.24609 26.4462 0.822648 24.1168 0.751219Z" fill="#C5192D" fill-opacity="0.7"/>
<path d="M22.6527 10.8889L22.6463 0.750257C20.2661 0.825572 17.9196 1.26355 15.6885 2.03736L19.3436 11.4973C20.4125 11.1564 21.5246 10.9506 22.6527 10.8889Z" fill="#4C9F38" fill-opacity="0.9"/>
<path d="M35.3424 18.5998C35.8067 19.6321 36.1359 20.7203 36.3228 21.8368L46.4674 20.9122C46.1476 18.5431 45.4637 16.2356 44.4447 14.077L35.3424 18.5998Z" fill="url(#paint0_linear_2122_4423)"/>
<path d="M29.2109 12.241C30.0699 12.6669 30.8619 13.1747 31.5813 13.7517L38.4626 6.27154C37.052 5.07532 35.4758 4.02855 33.7448 3.17029C33.315 2.95719 32.8815 2.75984 32.4422 2.5757L28.7825 12.0391C28.9268 12.1043 29.0691 12.1707 29.2109 12.241Z" fill="#FF3A21" fill-opacity="0.3"/>
<path d="M15.7045 34.6224C14.7592 33.9531 13.9275 33.1709 13.2127 32.307L5.09114 38.4122C6.55991 40.2604 8.32849 41.905 10.3683 43.2651L15.7045 34.6224Z" fill="url(#paint1_linear_2122_4423)"/>
<path d="M32.6771 14.7283C33.451 15.5064 34.1173 16.3701 34.6669 17.298L43.7782 12.7727C42.6671 10.753 41.25 8.88898 39.5533 7.25409L32.6771 14.7283Z" fill="#26BDE2" fill-opacity="0.1"/>
<path d="M11.9739 17.3892C12.5421 16.4147 13.221 15.5373 13.987 14.7676L7.10761 7.28864C5.45047 8.88667 4.00881 10.7544 2.85679 12.8688L11.9739 17.3892Z" fill="#E8203A"/>
<path d="M10.358 21.9218C10.5298 20.8308 10.8441 19.7481 11.31 18.6962L2.19394 14.1764C1.16172 16.3882 0.513067 18.6827 0.21484 20.9882L10.358 21.9218Z" fill="#19486A"/>
<path d="M10.4834 26.6514C10.2565 25.5824 10.1651 24.4837 10.2124 23.3795L0.0748969 22.4458C-0.0784927 24.8084 0.137975 27.1613 0.690865 29.4277L10.4834 26.6514Z" fill="#00689D" fill-opacity="0.6"/>
<defs>
<linearGradient id="paint0_linear_2122_4423" x1="41.2662" y1="17.8607" x2="41.2716" y2="22.4661" gradientUnits="userSpaceOnUse">
<stop stop-color="#FCC30B" stop-opacity="0.05"/>
<stop offset="1" stop-color="#FCC30B" stop-opacity="0"/>
</linearGradient>
<linearGradient id="paint1_linear_2122_4423" x1="12.6178" y1="35.5785" x2="15.1967" y2="40.1898" gradientUnits="userSpaceOnUse">
<stop stop-color="#0A97D9" stop-opacity="0.05"/>
<stop offset="1" stop-color="#0A97D9" stop-opacity="0"/>
</linearGradient>
</defs>
</svg>
